<svg xmlns:xlink="http://www.w3.org/1999/xlink" xmlns="http://www.w3.org/2000/svg" viewBox="0 0 24 24" fill="none" class="css-148cy85" width="44"  height="44" ><path d="M12.791 9.59c0-.498.28-.842.932-.97v1.889c-.651-.179-.932-.434-.932-.919zM15.739 13.342c0 .485-.28.88-.88 1.046v-2.016c.727.217.88.6.88.97z" fill="#FFFFFF"></path><path fill-rule="evenodd" clip-rule="evenodd" d="M8.5 3H20v13a4 4 0 01-4 4H7.5A3.5 3.5 0 014 16.5V9h4.5V3zm0 8.5h-2v5a1 1 0 102 0v-5zm6.512 5.517v-1.225c1.697-.28 2.488-1.34 2.488-2.59 0-1.302-.855-2.03-2.642-2.438V8.646c.613.14 1.021.421 1.328.766l1.16-1.047c-.56-.638-1.314-1.034-2.334-1.148v-1.2h-1.455v1.2C11.91 7.408 11.03 8.3 11.03 9.64c0 1.238.779 2.08 2.693 2.476v2.297c-.715-.102-1.315-.447-1.8-.957l-1.148 1.046c.638.702 1.493 1.225 2.782 1.34v1.174h1.455z" fill="#FFFFFF"></path></svg>