<svg id="Layer_1" data-name="Layer 1" xmlns="http://www.w3.org/2000/svg" viewBox="0 0 217.26 217.06"><defs><style>.cls-1{fill:none;}.cls-2{fill:#2c3869;}</style></defs><path class="cls-1" d="M0,0H217.26V217.06H0ZM108.09,135.89l-1.18-1.48a125.27,125.27,0,0,1-13.66-20.56,134.63,134.63,0,0,1-11-27.18,3.75,3.75,0,0,0-.62-1.23Q75.79,77.8,69.93,70.19c-1.21-1.59-2.44-3.16-3.69-4.77-1.06.77-2,1.51-3,2.2a1.34,1.34,0,0,0-.63,1.43,165,165,0,0,0,4.23,23.87A142.19,142.19,0,0,0,87,137.82a150.3,150.3,0,0,0,14.13,17.77c1.91,2.06,3.82,4.12,5.78,6.13,1.44,1.47,3,2.85,4.51,4.31a6.79,6.79,0,0,0,.71-.64c2.27-2.71,4.67-5.33,6.77-8.16a113.88,113.88,0,0,0,11.79-20.67,174.18,174.18,0,0,0,11-31.87c.28-1.19.49-2.4.73-3.61-.45-.23-.82-.39-1.16-.59-3.93-2.14-7.9-4.2-11.75-6.47a152.19,152.19,0,0,1-18-12.49,135.83,135.83,0,0,1-15.8-14.62c-.49-.53-.46-.8.13-1.24q7.29-5.46,14.52-11a1.84,1.84,0,0,1,2.16-.24A104,104,0,0,1,128.12,63a2,2,0,0,1,1,2c-.6,5.75-1.14,11.5-1.76,17.25a1.45,1.45,0,0,0,.71,1.65c3.39,2.06,6.72,4.22,10.14,6.22,1.85,1.09,3.84,1.94,5.87,3,.1-.87.2-1.49.24-2.13.32-5,.73-10,.91-15a121.11,121.11,0,0,0-.93-22.52,2.1,2.1,0,0,0-1.06-1.67q-15.57-9.43-31.12-18.93a1,1,0,0,0-1.3,0C105.24,37,99.59,41.17,94,45.32L73.89,60.09c-.44.32-.6.58-.23,1.14a145.93,145.93,0,0,0,16.66,21c3.83,4,7.87,7.74,12,11.41A115.84,115.84,0,0,0,120.39,107a1,1,0,0,1,.52,1.53c-.86,2-1.58,4-2.49,6q-4,8.88-8.22,17.72C109.66,133.4,108.92,134.48,108.09,135.89Zm-52-62.95a3.2,3.2,0,0,0-.52.25C50.33,77,45.12,80.82,39.87,84.61a1.2,1.2,0,0,0-.58,1.48c1.36,5.21,2.52,10.47,4.08,15.62a149.4,149.4,0,0,0,16.48,36,144.16,144.16,0,0,0,17.82,23.24c4.17,4.38,8.63,8.49,13.1,12.56a98.13,98.13,0,0,0,13.62,10.18,2,2,0,0,0,1.1.35q7-.54,14-1.17a2.37,2.37,0,0,0,1.3-.6c2.25-2.19,4.51-4.38,6.68-6.65a137.48,137.48,0,0,0,13.41-16.81A222.1,222.1,0,0,0,160,125.45a1,1,0,0,1,1.39-.64c2.21.57,4.43,1,6.62,1.64.74.2,1.12,0,1.44-.6,1.29-2.64,2.75-5.21,3.88-7.91,5.19-12.42,8.16-25.44,10.28-38.68a1.2,1.2,0,0,0-.62-1.39Q170.11,69.26,157.3,60.6l-7.54-5.09c0,.32,0,.49.05.65.34,4.83.8,9.66,1,14.5A162.4,162.4,0,0,1,150.27,90a151.12,151.12,0,0,1-4,24,139.94,139.94,0,0,1-13.5,34A155.66,155.66,0,0,1,112.7,175.9c-.67.75-1.16.68-1.81.08-3.79-3.53-7.75-6.88-11.33-10.61-3.9-4.06-7.63-8.32-11.12-12.75A154.87,154.87,0,0,1,69.92,122.5,152.74,152.74,0,0,1,56.74,78.07C56.5,76.39,56.31,74.71,56.09,72.94ZM197.2,75a18.37,18.37,0,0,1,0-2.1,1.83,1.83,0,0,0-1-1.92c-3.37-2.16-6.71-4.37-10.05-6.57L151,41.34Q131.69,28.63,112.4,15.92a1.35,1.35,0,0,0-1.82,0q-16.48,11.52-33,23Q59.69,51.37,41.8,63.84c-.9.63-1.64,1-2.44-.07a2.88,2.88,0,0,0-.54-.44C35.66,61,31.4,61.77,28.9,65.1a7.06,7.06,0,0,0,1.46,9.52,6.72,6.72,0,0,0,7.26.91,6.39,6.39,0,0,0,4.13-6.21c-.07-1.81.78-2.52,2-3.34Q58.06,56,72.39,46.06q19-13.2,37.92-26.44a1.74,1.74,0,0,1,2.3,0c4.47,3,9,5.91,13.45,8.86Q146.21,41.75,166.35,55q13.2,8.68,26.44,17.34a1.88,1.88,0,0,1,1.05,1.92c-.41,4.72-.56,9.48-1.18,14.17a128,128,0,0,1-6.8,26.67A163.79,163.79,0,0,1,171.42,145a151,151,0,0,1-18,23.84,129.69,129.69,0,0,1-15,13.89,110.6,110.6,0,0,1-25.95,15.35,2.26,2.26,0,0,1-2.07-.06,168.26,168.26,0,0,1-22.32-13.14,133.64,133.64,0,0,1-17.81-14.72c-3.68-3.68-7.19-7.55-10.58-11.5a127.4,127.4,0,0,1-15.57-23.23A131.86,131.86,0,0,1,34.2,111.7c-1.55-5.15-2.78-10.39-4.15-15.59a1,1,0,0,1,.55-1.36,8.59,8.59,0,0,0,2.33-2,6.44,6.44,0,0,0,.74-7.34,6.74,6.74,0,0,0-6.56-4,7.06,7.06,0,0,0-1.2,14,1.25,1.25,0,0,1,1.14,1.1,156,156,0,0,0,13.7,38,153.77,153.77,0,0,0,16.07,24.95,151.79,151.79,0,0,0,17.35,18.58,142,142,0,0,0,19.58,14.88,115.65,115.65,0,0,0,16.76,8.77,2.25,2.25,0,0,0,1.49.18c1.68-.65,3.33-1.38,5-2.15A119.3,119.3,0,0,0,152.39,174c3.66-3.83,7.16-7.84,10.51-12a153.44,153.44,0,0,0,16.9-26.07,162.55,162.55,0,0,0,12.83-32.36A122.2,122.2,0,0,0,197.2,75Zm-82.65,40.14c-3.44-2.62-6.85-5-10-7.69s-6.23-5.56-9.18-8.52-5.62-6.05-8.46-9.13a227.1,227.1,0,0,0,21,38.78C109.46,127.46,114.05,117.4,114.55,115.14Zm23.07,53c4.66-1.68,26.58-30.42,29.88-39l-1.73-.43c-2.55-.63-2.56-.64-3.78,1.68a265,265,0,0,1-24,36.86A5.05,5.05,0,0,0,137.62,168.16Z"/><path class="cls-2" d="M108.09,135.89c.83-1.41,1.57-2.49,2.11-3.65q4.17-8.84,8.22-17.72c.91-2,1.63-4,2.49-6a1,1,0,0,0-.52-1.53A115.84,115.84,0,0,1,102.3,93.62c-4.11-3.67-8.15-7.45-12-11.41a145.93,145.93,0,0,1-16.66-21c-.37-.56-.21-.82.23-1.14L94,45.32c5.64-4.15,11.29-8.28,16.91-12.45a1,1,0,0,1,1.3,0q15.56,9.49,31.12,18.93a2.1,2.1,0,0,1,1.06,1.67A121.11,121.11,0,0,1,145.27,76c-.18,5-.59,10-.91,15,0,.64-.14,1.26-.24,2.13-2-1-4-1.86-5.87-3-3.42-2-6.75-4.16-10.14-6.22a1.45,1.45,0,0,1-.71-1.65c.62-5.75,1.16-11.5,1.76-17.25a2,2,0,0,0-1-2,104,104,0,0,0-15.52-8.54,1.84,1.84,0,0,0-2.16.24q-7.22,5.55-14.52,11c-.59.44-.62.71-.13,1.24a135.83,135.83,0,0,0,15.8,14.62,152.19,152.19,0,0,0,18,12.49c3.85,2.27,7.82,4.33,11.75,6.47.34.2.71.36,1.16.59-.24,1.21-.45,2.42-.73,3.61a174.18,174.18,0,0,1-11,31.87,113.88,113.88,0,0,1-11.79,20.67c-2.1,2.83-4.5,5.45-6.77,8.16a6.79,6.79,0,0,1-.71.64c-1.53-1.46-3.07-2.84-4.51-4.31-2-2-3.87-4.07-5.78-6.13A150.3,150.3,0,0,1,87,137.82a142.19,142.19,0,0,1-20.23-44.9,165,165,0,0,1-4.23-23.87,1.34,1.34,0,0,1,.63-1.43c1-.69,2-1.43,3-2.2,1.25,1.61,2.48,3.18,3.69,4.77q5.85,7.62,11.69,15.25a3.75,3.75,0,0,1,.62,1.23,134.63,134.63,0,0,0,11,27.18,125.27,125.27,0,0,0,13.66,20.56Z"/><path class="cls-2" d="M56.09,72.94c.22,1.77.41,3.45.65,5.13A152.74,152.74,0,0,0,69.92,122.5a154.87,154.87,0,0,0,18.52,30.12c3.49,4.43,7.22,8.69,11.12,12.75,3.58,3.73,7.54,7.08,11.33,10.61.65.6,1.14.67,1.81-.08A155.66,155.66,0,0,0,132.79,148a139.94,139.94,0,0,0,13.5-34,151.12,151.12,0,0,0,4-24,162.4,162.4,0,0,0,.51-19.35c-.17-4.84-.63-9.67-1-14.5,0-.16,0-.33-.05-.65l7.54,5.09q12.82,8.64,25.64,17.27a1.2,1.2,0,0,1,.62,1.39c-2.12,13.24-5.09,26.26-10.28,38.68-1.13,2.7-2.59,5.27-3.88,7.91-.32.65-.7.8-1.44.6-2.19-.59-4.41-1.07-6.62-1.64a1,1,0,0,0-1.39.64,222.1,222.1,0,0,1-19.08,33.33,137.48,137.48,0,0,1-13.41,16.81c-2.17,2.27-4.43,4.46-6.68,6.65a2.37,2.37,0,0,1-1.3.6q-7,.63-14,1.17a2,2,0,0,1-1.1-.35,98.13,98.13,0,0,1-13.62-10.18c-4.47-4.07-8.93-8.18-13.1-12.56a144.16,144.16,0,0,1-17.82-23.24,149.4,149.4,0,0,1-16.48-36c-1.56-5.15-2.72-10.41-4.08-15.62a1.2,1.2,0,0,1,.58-1.48c5.25-3.79,10.46-7.61,15.7-11.42A3.2,3.2,0,0,1,56.09,72.94Zm105.59,4.19c0,.43-.05.6-.05.76-.21,4.5-.42,9-.59,13.51a1.78,1.78,0,0,0,.35,1.07c1.47,1.91,3,3.79,4.47,5.67l1.92,2.34c.25-.52.45-.86.59-1.22a64.19,64.19,0,0,0,3.56-15.67,1.36,1.36,0,0,0-.76-1.48c-1.91-1.11-3.79-2.25-5.73-3.29C164.28,78.2,163,77.73,161.68,77.13Z"/><path class="cls-2" d="M197.2,75a122.2,122.2,0,0,1-4.57,28.56,162.55,162.55,0,0,1-12.83,32.36A153.44,153.44,0,0,1,162.9,162c-3.35,4.12-6.85,8.13-10.51,12A119.3,119.3,0,0,1,117,199.73c-1.63.77-3.28,1.5-5,2.15a2.25,2.25,0,0,1-1.49-.18,115.65,115.65,0,0,1-16.76-8.77,142,142,0,0,1-19.58-14.88,151.79,151.79,0,0,1-17.35-18.58,153.77,153.77,0,0,1-16.07-24.95,156,156,0,0,1-13.7-38,1.25,1.25,0,0,0-1.14-1.1,7.06,7.06,0,0,1,1.2-14,6.74,6.74,0,0,1,6.56,4,6.44,6.44,0,0,1-.74,7.34,8.59,8.59,0,0,1-2.33,2,1,1,0,0,0-.55,1.36c1.37,5.2,2.6,10.44,4.15,15.59a131.86,131.86,0,0,0,9.91,23.74,127.4,127.4,0,0,0,15.57,23.23c3.39,4,6.9,7.82,10.58,11.5a133.64,133.64,0,0,0,17.81,14.72A168.26,168.26,0,0,0,110.39,198a2.26,2.26,0,0,0,2.07.06,110.6,110.6,0,0,0,26-15.35,129.69,129.69,0,0,0,15-13.89,151,151,0,0,0,18-23.84,163.79,163.79,0,0,0,14.44-29.9,128,128,0,0,0,6.8-26.67c.62-4.69.77-9.45,1.18-14.17a1.88,1.88,0,0,0-1.05-1.92Q179.55,63.71,166.35,55,146.2,41.77,126.06,28.49c-4.48-2.95-9-5.87-13.45-8.86a1.74,1.74,0,0,0-2.3,0Q91.37,32.88,72.39,46.06,58.07,56,43.72,66c-1.19.82-2,1.53-2,3.34a6.39,6.39,0,0,1-4.13,6.21,6.72,6.72,0,0,1-7.26-.91A7.06,7.06,0,0,1,28.9,65.1c2.5-3.33,6.76-4.09,9.92-1.77a2.88,2.88,0,0,1,.54.44c.8,1.1,1.54.7,2.44.07Q59.68,51.35,77.58,38.9q16.5-11.47,33-23a1.35,1.35,0,0,1,1.82,0Q131.68,28.66,151,41.34l35.12,23.07c3.34,2.2,6.68,4.41,10.05,6.57a1.83,1.83,0,0,1,1,1.92A18.37,18.37,0,0,0,197.2,75Z"/><path class="cls-2" d="M114.55,115.14c-.5,2.26-5.09,12.32-6.69,13.44a227.1,227.1,0,0,1-21-38.78c2.84,3.08,5.55,6.21,8.46,9.13s6,5.83,9.18,8.52S111.11,112.52,114.55,115.14Z"/><path class="cls-2" d="M137.62,168.16a5.05,5.05,0,0,1,.41-.91,265,265,0,0,0,24-36.86c1.22-2.32,1.23-2.31,3.78-1.68l1.73.43C164.2,137.74,142.28,166.48,137.62,168.16Z"/></svg>