<?xml version="1.0" standalone="no"?>
<!DOCTYPE svg PUBLIC "-//W3C//DTD SVG 20010904//EN"
 "http://www.w3.org/TR/2001/REC-SVG-20010904/DTD/svg10.dtd">
<svg version="1.0" xmlns="http://www.w3.org/2000/svg"
 width="542.000000pt" height="541.000000pt" viewBox="0 0 542.000000 541.000000"
 preserveAspectRatio="xMidYMid meet">

<g transform="translate(0.000000,541.000000) scale(0.100000,-0.100000)"
fill="#000000" stroke="none">
<path d="M945 5398 c36 -21 46 -41 27 -56 -16 -12 -16 -14 1 -24 17 -9 17 -11
-7 -24 -15 -7 -34 -11 -44 -8 -15 5 -14 4 1 -6 11 -7 29 -9 45 -4 15 4 30 7
35 6 7 -2 9 4 11 31 1 6 7 17 13 22 7 6 16 25 19 43 l7 32 -64 0 c-53 -1 -61
-3 -44 -12z"/>
<path d="M1076 5394 c-8 -21 -8 -21 8 -21 8 0 11 8 8 19 -5 22 -8 23 -16 2z"/>
<path d="M1100 5397 c0 -7 7 -22 15 -33 12 -16 14 -17 15 -2 0 9 3 23 6 32 4
12 0 16 -15 16 -12 0 -21 -6 -21 -13z"/>
<path d="M1151 5366 c1 -23 3 -33 6 -24 3 13 16 17 58 17 30 0 57 -5 60 -10 3
-5 -1 -6 -9 -3 -9 3 -16 1 -16 -5 0 -14 -37 -15 -45 -1 -12 20 -35 10 -35 -15
0 -27 23 -34 37 -12 5 8 9 2 13 -18 4 -22 11 -29 24 -27 11 2 20 -4 23 -17 6
-22 37 -29 48 -11 3 6 1 10 -4 10 -16 0 -13 17 3 23 8 3 24 -3 37 -14 12 -10
27 -19 33 -19 6 0 5 4 -3 9 -9 6 -10 10 -2 16 17 10 41 -14 41 -41 0 -16 -6
-24 -16 -24 -14 0 -16 -8 -12 -45 3 -25 2 -45 -2 -45 -9 0 -22 -31 -16 -37 2
-3 12 -6 21 -7 9 -1 20 -8 24 -15 6 -10 10 -9 14 3 4 10 1 16 -8 16 -8 0 -15
5 -15 11 0 7 10 9 25 5 15 -4 39 0 59 9 42 20 64 17 94 -12 13 -13 34 -23 48
-23 22 0 25 -4 22 -32 -2 -26 1 -32 13 -30 9 1 19 -5 23 -13 8 -23 26 -9 26
20 0 29 -16 41 -24 19 -3 -8 -10 -12 -16 -9 -6 3 0 16 14 30 14 13 27 34 31
45 9 27 19 25 33 -5 7 -14 20 -25 31 -25 25 0 52 -26 45 -45 -3 -7 -14 -12
-25 -10 -10 2 -19 0 -19 -6 0 -5 -13 -9 -30 -9 -26 0 -30 -4 -30 -27 0 -14 3
-23 6 -20 13 13 42 -13 37 -33 -4 -16 0 -20 17 -20 13 0 29 8 37 18 12 15 13
13 7 -16 -5 -31 -4 -33 13 -24 10 5 23 7 29 5 6 -2 14 3 18 12 3 10 2 14 -5
10 -6 -4 -13 2 -16 14 -5 20 -14 25 -40 22 -8 -1 -10 5 -7 14 5 12 10 13 19 5
10 -8 21 -8 41 3 17 9 23 17 15 21 -6 4 -11 2 -11 -4 0 -8 -6 -8 -20 0 -36 19
-20 48 23 41 5 -1 5 9 1 21 -6 19 -2 18 25 -10 38 -38 41 -38 74 -12 15 12 28
16 32 11 3 -6 -3 -16 -15 -23 -27 -17 -25 -28 5 -28 18 0 23 4 19 15 -4 8 -1
15 5 15 6 0 11 7 11 15 0 17 23 11 58 -16 14 -11 36 -17 53 -15 16 2 29 0 29
-5 0 -5 11 -4 25 1 17 6 33 6 49 -2 23 -10 24 -12 9 -35 -11 -17 -21 -22 -36
-17 -12 4 -18 2 -15 -6 2 -6 6 -10 8 -8 3 2 12 -3 20 -10 8 -7 24 -20 35 -28
15 -11 16 -17 7 -21 -9 -3 -5 -12 13 -28 25 -24 35 -53 13 -39 -7 4 -8 3 -4
-4 10 -17 26 -15 26 2 0 23 20 30 33 13 15 -19 74 -36 63 -18 -4 7 -2 18 4 26
7 8 10 26 6 39 -5 20 -2 25 21 29 38 7 57 -1 42 -19 -9 -11 -8 -14 5 -14 33 0
15 -18 -25 -24 -38 -6 -41 -8 -36 -34 3 -15 -1 -38 -10 -53 -19 -32 -11 -59
17 -59 25 0 27 -28 3 -37 -10 -3 -26 -12 -35 -20 -13 -12 -21 -12 -40 -2 -21
11 -22 11 -9 -4 12 -15 10 -17 -16 -17 -16 0 -35 6 -41 12 -9 9 -15 10 -20 2
-4 -6 -16 -14 -27 -18 -13 -5 -15 -10 -7 -13 21 -8 13 -23 -12 -23 -16 0 -27
-7 -31 -21 -6 -18 -42 -41 -70 -43 -6 -1 -28 -18 -49 -38 -21 -21 -47 -40 -57
-43 -11 -4 -19 -11 -19 -16 0 -6 -4 -8 -9 -5 -20 12 -111 -96 -111 -131 0 -22
-67 -96 -132 -145 -20 -16 -40 -38 -44 -50 -3 -12 -15 -30 -24 -41 -10 -10
-21 -31 -25 -45 -4 -15 -20 -48 -36 -74 -31 -52 -38 -73 -43 -133 -2 -22 -6
-47 -9 -55 -29 -75 -38 -144 -41 -313 -3 -191 -2 -193 50 -314 8 -17 14 -37
14 -45 0 -7 11 -30 25 -50 14 -20 25 -43 25 -50 0 -8 -16 -30 -36 -51 -45 -46
-55 -88 -37 -149 16 -57 41 -72 35 -22 -3 20 0 34 7 34 11 0 51 -80 51 -102 0
-8 5 -19 11 -25 7 -7 11 -51 11 -112 0 -56 4 -104 8 -106 5 -3 12 -30 16 -61
4 -34 11 -53 18 -51 17 6 26 78 13 115 -9 27 -9 35 3 43 11 8 12 12 3 16 -15
5 -18 63 -4 63 5 0 7 -8 4 -19 -3 -10 0 -22 6 -25 15 -10 17 27 5 99 -2 17 -6
40 -7 53 -1 12 -8 27 -16 31 -11 7 -10 13 3 34 9 13 18 41 20 61 2 19 8 42 15
49 6 8 8 27 5 44 -4 18 -1 33 5 37 6 4 11 22 11 39 1 47 73 117 120 117 21 0
61 17 70 30 5 7 167 33 210 33 56 0 129 -18 196 -49 79 -37 154 -36 154 2 0 7
7 14 15 18 13 4 12 9 -3 36 -9 16 -22 30 -28 30 -6 0 -17 6 -23 14 -13 15 -52
30 -186 71 -112 34 -152 52 -157 67 -5 15 -87 11 -105 -4 -9 -7 -13 -7 -13 1
0 6 5 11 10 11 6 0 10 5 10 11 0 6 -7 8 -16 5 -30 -11 -34 5 -11 44 15 28 29
40 45 40 12 0 22 4 22 9 0 10 48 25 68 22 6 -1 12 2 12 8 0 5 9 7 20 4 11 -3
28 -2 37 2 10 4 31 9 47 11 16 2 35 9 42 15 7 6 19 7 26 3 20 -12 132 -12 140
0 4 6 8 1 8 -11 0 -25 27 -32 47 -12 8 8 18 6 37 -6 l27 -18 -18 32 c-10 17
-22 31 -28 31 -10 0 -75 57 -75 65 0 2 8 1 18 -2 15 -6 15 -5 3 10 -7 9 -17
14 -22 11 -16 -10 -9 17 10 37 12 13 30 20 48 19 43 -3 49 -1 33 11 -12 9 -12
10 3 5 11 -4 31 3 48 15 16 11 29 16 29 10 0 -6 0 -14 0 -18 -1 -5 16 -10 37
-13 28 -4 39 -10 41 -25 2 -11 11 -28 20 -37 12 -14 12 -18 2 -18 -11 0 -11
-2 -1 -12 6 -7 17 -13 23 -13 20 0 34 -33 19 -47 -11 -10 -14 -10 -18 0 -8 21
-43 14 -43 -8 0 -11 -6 -20 -12 -20 -7 0 -5 -5 5 -11 10 -6 26 -7 35 -4 9 4
36 9 60 10 37 2 45 -1 52 -20 5 -13 15 -27 23 -32 16 -9 31 -42 28 -60 -1 -7
3 -13 9 -13 6 0 8 -4 5 -10 -3 -5 5 -15 20 -22 30 -14 56 -60 44 -79 -5 -8 -9
-10 -9 -6 0 5 -13 -3 -30 -16 -16 -14 -38 -28 -47 -32 -10 -3 -40 -35 -68 -70
-27 -35 -65 -71 -83 -80 l-34 -17 6 -61 c4 -35 2 -77 -4 -97 -21 -67 -27 -132
-18 -174 6 -22 11 -61 12 -86 1 -25 6 -58 11 -74 6 -22 5 -27 -5 -21 -9 6 -10
3 -1 -13 6 -11 15 -22 21 -24 6 -2 13 -26 16 -53 5 -49 4 -51 -48 -112 -31
-36 -64 -64 -80 -68 -15 -4 -30 -10 -33 -15 -10 -16 47 -50 82 -50 50 0 73
-16 73 -50 0 -23 5 -31 25 -36 15 -4 25 -13 25 -25 0 -10 7 -22 15 -27 11 -6
5 -8 -21 -9 -20 -1 -41 -6 -47 -12 -6 -6 -17 -11 -24 -11 -7 0 -31 -11 -52
-24 -49 -31 -141 -38 -169 -13 -10 9 -21 15 -24 12 -2 -3 -25 -7 -49 -9 -25
-3 -57 -10 -73 -15 -15 -6 -42 -11 -61 -11 -37 0 -68 -24 -63 -48 5 -24 51
-33 183 -37 78 -2 134 -8 160 -19 22 -8 52 -15 68 -16 26 0 56 -23 58 -45 1
-5 5 -17 10 -26 6 -12 2 -19 -19 -29 -15 -7 -34 -12 -43 -11 -30 4 -48 -30
-42 -82 6 -49 20 -59 46 -33 18 19 65 9 72 -15 4 -13 16 -19 35 -19 16 0 32
-5 35 -11 4 -5 12 -8 18 -6 7 2 20 -14 29 -36 22 -48 22 -57 3 -57 -8 0 -15
-6 -15 -12 -1 -21 -42 -63 -87 -92 -24 -14 -43 -31 -43 -37 0 -7 -15 -9 -42
-5 -24 3 -79 9 -123 12 -44 4 -82 10 -85 14 -9 12 -79 19 -82 8 -6 -17 -78 21
-123 64 -22 21 -43 38 -47 38 -5 0 -8 5 -8 12 0 6 -17 28 -38 48 -47 46 -85
108 -77 128 6 17 -15 72 -29 72 -4 0 -6 7 -3 14 4 9 -2 17 -14 21 -10 4 -19
15 -19 26 0 20 -15 26 -25 9 -7 -11 -45 19 -45 36 0 7 -5 14 -11 16 -5 2 -11
10 -13 18 -7 33 -19 50 -38 50 -10 0 -17 4 -14 9 3 5 -8 14 -24 20 -17 5 -30
13 -30 17 0 3 6 4 14 1 10 -4 13 2 12 19 -1 29 -5 30 -22 7 -12 -16 -13 -16
-11 7 0 14 5 28 11 32 6 4 6 15 -1 30 -7 13 -12 17 -12 9 -1 -10 -4 -11 -15
-2 -26 22 -26 -17 1 -92 24 -69 54 -130 102 -208 20 -34 52 -166 47 -192 -2
-7 -6 -24 -11 -40 -4 -16 -3 -32 4 -41 6 -7 8 -16 4 -19 -3 -4 -2 -7 4 -7 6 0
14 12 17 26 7 25 8 26 26 9 14 -12 20 -14 20 -5 0 7 27 -15 60 -49 34 -33 65
-61 69 -61 5 0 14 -7 21 -15 7 -8 16 -12 21 -9 5 3 9 2 9 -3 0 -4 16 -25 36
-45 19 -21 32 -43 28 -49 -9 -15 16 -30 38 -23 17 5 45 -30 30 -39 -4 -2 -2
-3 5 -1 6 1 19 -6 29 -17 9 -10 22 -19 28 -19 7 0 35 -22 63 -48 41 -38 49
-52 40 -61 -9 -10 -8 -11 8 -5 11 4 17 4 13 -1 -8 -9 15 -35 31 -35 6 0 11 -6
11 -13 0 -7 18 -20 40 -30 44 -19 52 -43 22 -70 -21 -19 -52 -21 -102 -7 -30
8 -33 7 -17 -4 11 -9 19 -32 22 -72 3 -32 9 -62 15 -68 7 -7 10 -6 10 2 0 7 7
12 16 12 14 0 14 -3 4 -15 -10 -12 -10 -15 1 -15 10 0 9 -4 -3 -16 -10 -10
-21 -13 -29 -8 -26 16 -47 10 -64 -18 -13 -23 -14 -32 -5 -43 10 -12 9 -15 -4
-15 -18 0 -21 -15 -5 -25 6 -4 8 -13 5 -20 -5 -15 24 -45 43 -45 19 0 41 -26
41 -49 0 -12 5 -21 10 -21 6 0 10 5 10 11 0 6 9 9 20 6 11 -3 20 -1 20 3 0 5
27 14 60 21 33 6 60 16 60 21 0 5 5 6 10 3 6 -3 13 1 16 9 3 8 14 18 24 21 10
3 20 14 23 24 3 15 11 17 33 13 16 -3 38 -11 50 -19 11 -7 24 -10 27 -7 10 10
37 -16 37 -37 0 -9 7 -24 15 -33 8 -8 15 -19 15 -24 0 -5 16 -13 35 -16 19 -4
35 -11 35 -15 0 -4 18 -36 40 -70 22 -34 40 -69 40 -79 -1 -26 -39 -94 -104
-182 l-59 -80 -380 2 -381 3 -73 105 c-68 97 -133 217 -133 244 0 7 -9 22 -21
34 -11 12 -17 27 -14 32 5 8 -12 48 -26 60 -9 8 -59 118 -59 130 0 7 -6 24
-14 38 -19 37 -45 128 -51 182 -3 25 -10 66 -16 91 -8 28 -9 64 -4 95 5 27 8
52 7 56 -1 5 2 8 8 8 5 0 7 7 4 15 -5 13 -3 13 22 0 16 -8 35 -15 43 -15 8 0
11 -6 7 -16 -3 -9 -1 -34 5 -57 6 -22 12 -50 13 -61 1 -12 8 -31 15 -44 6 -12
9 -27 6 -32 -3 -5 -3 -21 1 -35 5 -20 9 -23 20 -14 8 6 14 20 14 30 0 11 4 19
9 19 5 0 9 35 10 77 0 43 1 102 1 132 1 29 -3 58 -8 63 -5 5 -7 38 -5 73 3 43
-1 76 -12 101 -18 44 -18 42 0 46 12 2 11 7 -4 27 l-18 24 0 -24 c-1 -43 -3
-48 -24 -54 -12 -4 -45 -29 -75 -56 -30 -27 -61 -49 -70 -49 -17 0 -55 -15
-149 -60 -33 -16 -73 -32 -90 -36 -16 -4 -41 -12 -55 -19 -47 -23 -101 -45
-111 -45 -13 0 -214 -88 -314 -137 -38 -19 -108 -50 -155 -69 -170 -71 -259
-125 -356 -214 -50 -47 -120 -105 -154 -130 -34 -25 -140 -123 -236 -219
l-174 -173 0 -69 0 -69 2710 0 2711 0 -1 215 c-1 126 -5 213 -11 210 -13 -9
-47 13 -54 34 -8 25 -34 35 -52 20 -11 -10 -17 -8 -29 9 -8 12 -21 22 -29 22
-8 0 -18 6 -22 13 -4 8 -16 16 -25 20 -10 3 -18 13 -18 21 0 9 -6 13 -15 10
-8 -3 -28 4 -45 16 -16 12 -35 18 -41 14 -8 -4 -9 -3 -5 4 5 8 0 12 -12 12
-11 0 -25 7 -32 14 -8 11 -18 12 -35 6 -19 -7 -24 -4 -34 16 -6 13 -16 24 -23
25 -45 2 -83 11 -86 19 -2 6 -10 10 -18 10 -8 0 -14 5 -14 11 0 7 -12 10 -29
7 -17 -2 -28 -1 -26 3 4 5 -18 16 -46 23 -12 3 -107 67 -167 114 -71 55 -208
127 -234 123 -9 -1 -19 3 -23 8 -3 6 0 8 9 5 12 -5 13 1 5 33 -12 53 -12 53
15 53 25 0 36 16 36 56 0 14 4 23 9 19 6 -3 13 11 16 32 8 48 25 84 48 101 9
7 17 23 18 35 1 21 2 20 9 -3 l8 -25 1 28 c1 15 11 41 23 57 17 24 19 32 8 44
-15 19 -6 46 15 46 9 0 13 5 10 10 -3 6 -2 10 3 10 6 0 13 15 16 33 3 18 14
44 23 57 10 14 16 33 15 42 -2 9 8 24 22 34 24 15 39 63 16 49 -19 -12 -10 7
13 26 12 10 31 19 42 19 20 1 20 1 1 15 -17 13 -18 19 -8 52 6 21 9 48 6 61
-4 12 -1 28 4 35 7 8 10 46 9 90 -1 54 2 78 11 82 14 5 17 75 3 75 -5 0 -11
16 -13 35 -2 19 -1 35 3 35 7 0 22 39 20 53 -1 4 -3 30 -6 58 -5 47 -3 50 23
61 l27 10 -30 14 c-23 10 -25 13 -10 14 11 0 16 3 10 8 -12 8 -12 17 -1 51 6
17 4 28 -5 35 -16 13 -25 41 -10 32 15 -9 24 13 12 28 -8 9 -5 18 10 35 11 12
24 19 30 16 13 -9 11 19 -2 32 -9 9 -5 14 15 19 14 3 26 12 26 19 0 7 6 15 13
18 10 4 10 7 0 18 -7 7 -13 18 -13 23 0 6 5 4 10 -4 6 -9 10 -10 10 -3 0 6 -4
14 -9 17 -14 9 0 56 19 66 10 5 30 8 46 7 30 -2 30 -2 16 47 -4 16 -1 18 16
14 25 -7 28 2 10 21 -11 10 -9 12 7 9 15 -2 21 4 25 27 3 17 11 29 16 28 9 -1
14 21 17 69 1 13 7 16 19 12 12 -4 18 0 18 11 0 9 -4 13 -10 10 -5 -3 -10 -1
-10 4 0 6 6 11 13 11 7 0 19 9 27 20 8 11 21 20 30 20 9 0 16 9 17 22 1 11 7
24 14 28 6 4 7 9 2 11 -6 2 -13 17 -17 32 -5 20 -3 27 4 22 6 -4 20 1 30 10
13 12 27 15 45 11 22 -6 25 -3 27 21 0 16 1 34 1 41 -1 8 5 11 13 8 10 -4 10
1 -3 21 -10 15 -16 35 -15 46 2 10 -7 27 -19 38 l-22 19 24 1 c13 1 27 1 32 0
4 -1 12 10 17 23 5 13 17 29 27 34 16 10 16 12 -9 32 -15 11 -25 27 -22 34 3
8 0 17 -5 21 -13 7 -5 25 10 25 6 0 8 -4 5 -9 -3 -5 3 -11 13 -14 14 -3 21 2
27 22 4 14 6 32 5 40 -1 8 3 18 11 23 9 7 7 8 -7 3 -52 -19 -62 -18 -67 9 -3
15 -1 29 4 32 6 4 5 10 -3 15 -11 7 -10 9 3 9 11 0 15 5 12 14 -7 19 13 56 31
56 9 0 15 -10 16 -22 l0 -23 9 22 c6 16 14 21 26 16 15 -5 15 -4 0 25 -18 36
-20 65 -6 92 14 26 -15 79 -43 80 -5 0 -1 -7 7 -16 20 -19 20 -28 1 -44 -9 -8
-13 -21 -9 -32 9 -29 -6 -82 -19 -69 -6 6 -19 11 -30 11 -10 0 -16 4 -12 9 3
5 1 12 -4 15 -5 4 -11 1 -14 -6 -2 -7 -3 -1 -1 15 3 21 -1 27 -16 27 -11 0
-20 4 -20 9 0 4 13 8 30 7 16 -1 30 -4 30 -8 0 -5 3 -8 8 -8 4 0 7 15 7 33 -1
17 -5 31 -11 30 -5 -1 -14 9 -21 23 -6 13 -7 24 -2 24 5 0 9 9 9 19 0 26 17
36 36 20 21 -17 44 -20 44 -6 0 6 7 2 16 -9 15 -18 15 -18 9 4 -5 16 -2 22 10
22 9 0 13 -5 9 -11 -4 -8 1 -9 17 -5 13 3 19 3 12 0 -15 -7 5 -44 24 -44 7 0
13 -4 13 -9 0 -6 9 -9 20 -8 17 1 20 8 20 53 l0 52 -45 -2 c-25 0 -45 -4 -45
-8 0 -3 -9 -4 -20 -1 -10 3 -18 10 -17 17 1 7 -12 10 -38 8 -32 -2 -37 0 -22
9 10 6 14 15 10 22 -4 8 -1 8 9 -1 10 -8 26 -10 42 -6 20 5 26 2 26 -11 0 -15
1 -15 16 -1 8 9 16 24 17 35 1 16 5 17 24 8 12 -5 19 -15 16 -21 -4 -6 1 -5
10 3 11 8 14 18 8 25 -4 6 -11 24 -13 39 -4 21 -2 27 8 23 12 -5 14 84 14 554
l0 560 -2024 0 c-1790 0 -2025 -2 -2030 -15 -7 -19 -23 -19 -43 0 -12 12 -34
16 -94 14 l-79 -2 1 -41z m160 -9 c-13 -13 -26 -3 -16 12 3 6 11 8 17 5 6 -4
6 -10 -1 -17z m499 -57 c0 -5 -5 -10 -11 -10 -5 0 -7 5 -4 10 3 6 8 10 11 10
2 0 4 -4 4 -10z m-380 -20 c0 -23 -13 -26 -29 -6 -9 11 -9 15 1 19 23 10 28 7
28 -13z m310 6 c0 -3 -4 -8 -10 -11 -5 -3 -10 -1 -10 4 0 6 5 11 10 11 6 0 10
-2 10 -4z m45 -26 c-3 -5 -10 -10 -16 -10 -5 0 -9 5 -9 10 0 6 7 10 16 10 8 0
12 -4 9 -10z m-125 -100 c6 -11 8 -20 6 -20 -3 0 -10 9 -16 20 -6 11 -8 20 -6
20 3 0 10 -9 16 -20z m324 -9 c3 -5 -1 -11 -9 -15 -15 -6 -29 7 -18 18 9 9 21
8 27 -3z m-514 -21 c0 -5 -4 -10 -10 -10 -5 0 -10 5 -10 10 0 6 5 10 10 10 6
0 10 -4 10 -10z m618 -20 c7 -12 8 -20 2 -20 -5 0 -10 5 -10 10 0 6 -7 10 -15
10 -8 0 -15 5 -15 10 0 17 25 11 38 -10z m-84 -30 c-16 -32 -29 -38 -37 -17
-3 6 -6 1 -6 -12 -1 -24 -1 -24 -16 -5 -16 21 -19 35 -7 32 14 -3 42 14 36 23
-3 5 6 9 20 9 24 0 24 -1 10 -30z m176 -20 c0 -5 -2 -10 -4 -10 -3 0 -8 5 -11
10 -3 6 -1 10 4 10 6 0 11 -4 11 -10z m315 -10 c3 -5 -1 -10 -10 -10 -9 0 -13
5 -10 10 3 6 8 10 10 10 2 0 7 -4 10 -10z m-173 -102 c-15 -15 -24 -6 -16 16
5 12 10 14 17 7 8 -8 8 -14 -1 -23z m256 -14 c-4 -11 -28 -14 -28 -4 0 8 22
20 28 14 2 -1 2 -6 0 -10z m-53 -25 c10 -15 -1 -22 -24 -14 -12 3 -19 11 -16
16 8 12 32 11 40 -2z m-175 -24 c0 -8 -9 -15 -20 -15 -25 0 -26 17 -2 23 9 3
18 5 20 6 1 0 2 -6 2 -14z m67 -7 c-3 -8 -6 -5 -6 6 -1 11 2 17 5 13 3 -3 4
-12 1 -19z m-40 -30 c-3 -8 -6 -5 -6 6 -1 11 2 17 5 13 3 -3 4 -12 1 -19z
m330 -13 c3 -9 3 -18 0 -21 -7 -8 -47 15 -47 26 0 16 40 11 47 -5z m838 -32
c-5 -10 -8 -21 -7 -25 1 -3 -5 -9 -13 -11 -10 -4 -12 1 -9 21 5 25 23 46 32
37 3 -2 1 -12 -3 -22z m-1015 -24 c0 -10 -4 -19 -10 -19 -5 0 -7 -7 -4 -15 9
-21 37 -19 52 5 10 16 10 20 -2 20 -8 0 -17 -7 -20 -16 -4 -9 -9 -14 -13 -11
-11 12 26 56 46 54 11 0 17 -5 15 -9 -10 -16 19 -7 32 9 11 15 12 12 11 -25
-2 -43 -7 -47 -50 -42 -10 1 -25 -4 -33 -10 -8 -7 -14 -9 -15 -4 0 5 -4 -1 -9
-13 -13 -32 -46 -30 -52 2 -3 14 -2 25 2 25 13 0 18 49 6 54 -6 2 -3 5 7 5 9
1 17 6 17 12 0 5 5 7 10 4 6 -3 10 -15 10 -26z m685 -39 c-6 -9 -9 -9 -16 1
-10 17 0 34 13 21 6 -6 7 -16 3 -22z m118 16 c6 -16 -2 -28 -14 -20 -12 7 -11
34 0 34 5 0 11 -6 14 -14z m244 -30 c8 -6 9 -57 1 -62 -13 -8 -28 15 -21 32 3
8 -6 18 -21 24 -14 5 -26 12 -26 15 0 3 60 -4 67 -9z m430 -28 c-3 -8 -6 -5
-6 6 -1 11 2 17 5 13 3 -3 4 -12 1 -19z m-197 -13 c0 -7 -7 -16 -16 -19 -24
-9 -6 -26 27 -26 19 0 28 -4 23 -11 -3 -6 -15 -8 -26 -6 -12 3 -23 -2 -31 -14
-6 -10 -22 -19 -35 -19 -13 0 -21 -4 -18 -9 14 -22 -57 -3 -80 22 -27 29 -39
33 -49 16 -4 -6 -14 -8 -22 -5 -8 3 -11 1 -8 -4 3 -6 19 -10 36 -10 16 0 29
-5 29 -10 0 -15 -27 -23 -47 -15 -10 4 -30 7 -45 6 -30 -3 -57 17 -50 37 3 9
9 9 25 1 18 -10 24 -8 41 14 17 20 25 24 39 16 13 -8 17 -6 17 6 0 8 7 15 15
15 8 0 15 -9 15 -21 0 -11 4 -18 9 -15 4 3 6 16 4 30 -3 13 0 27 6 30 6 4 8
-1 6 -14 -2 -11 0 -20 6 -20 5 0 9 -9 9 -19 0 -23 16 -36 25 -21 4 6 0 19 -9
29 -15 17 -15 20 -2 33 9 9 29 14 50 12 20 -1 36 2 36 7 0 6 5 7 10 4 6 -3 10
-12 10 -20z m-496 -15 c-12 -5 -25 -13 -29 -19 -9 -16 -25 -3 -18 14 3 9 18
15 37 14 27 0 29 -1 10 -9z m173 -42 c-3 -8 -6 -5 -6 6 -1 11 2 17 5 13 3 -3
4 -12 1 -19z m-87 -48 c0 -5 -5 -10 -11 -10 -5 0 -7 5 -4 10 3 6 8 10 11 10 2
0 4 -4 4 -10z m84 -11 c-8 -14 -24 -10 -24 6 0 9 6 12 15 9 8 -4 12 -10 9 -15z
m1636 -20 c0 -6 -4 -7 -10 -4 -5 3 -10 11 -10 16 0 6 5 7 10 4 6 -3 10 -11 10
-16z m-1490 -13 c0 -2 -7 -6 -15 -10 -8 -3 -15 -1 -15 4 0 6 7 10 15 10 8 0
15 -2 15 -4z m1562 -191 c0 -5 -5 -11 -11 -13 -6 -2 -11 4 -11 13 0 9 5 15 11
13 6 -2 11 -8 11 -13z m-192 -89 c0 -11 -19 -15 -25 -6 -3 5 1 10 9 10 9 0 16
-2 16 -4z m320 -26 c11 -7 4 -10 -25 -9 -31 0 -36 2 -20 9 26 11 28 11 45 0z
m-176 -62 c-1 -30 -6 -44 -18 -46 -23 -5 -20 -45 4 -60 23 -14 27 -34 5 -26
-8 4 -17 -1 -21 -9 -5 -13 -9 -14 -24 -5 -14 9 -16 16 -9 30 6 12 6 25 -1 38
-6 11 -8 20 -4 20 3 0 2 6 -4 13 -12 14 2 47 14 35 9 -9 34 17 34 35 0 7 3 17
6 20 14 13 20 -3 18 -45z m-204 -20 c0 -16 -3 -19 -11 -11 -6 6 -8 16 -5 22
11 17 16 13 16 -11z m54 -3 c3 -8 1 -15 -3 -15 -5 0 -11 7 -15 15 -3 8 -1 15
3 15 5 0 11 -7 15 -15z m52 -56 c1 -35 -6 -49 -23 -49 -12 0 -14 7 -9 28 4 15
7 33 8 40 2 22 23 6 24 -19z m364 11 c0 -5 -7 -10 -15 -10 -8 0 -15 5 -15 10
0 6 7 10 15 10 8 0 15 -4 15 -10z m-440 -70 c0 -19 -5 -30 -14 -30 -22 0 -28
17 -12 33 8 8 12 17 9 21 -4 3 -1 6 5 6 7 0 12 -13 12 -30z m-70 5 c0 -8 -4
-15 -10 -15 -5 0 -7 7 -4 15 4 8 8 15 10 15 2 0 4 -7 4 -15z m190 -70 c0 -8
-4 -15 -10 -15 -5 0 -10 7 -10 15 0 8 5 15 10 15 6 0 10 -7 10 -15z m80 -115
c0 -5 -4 -10 -10 -10 -5 0 -10 5 -10 10 0 6 5 10 10 10 6 0 10 -4 10 -10z
m-190 -720 c0 -5 -4 -10 -10 -10 -5 0 -10 5 -10 10 0 6 5 10 10 10 6 0 10 -4
10 -10z m-1830 -110 c37 -27 30 -52 -20 -68 -22 -6 -47 -12 -55 -12 -9 0 -34
-9 -56 -20 -44 -23 -59 -20 -59 14 0 38 62 83 135 99 11 3 22 5 23 6 2 0 17
-8 32 -19z m-201 -185 c-12 -34 -12 -38 6 -51 13 -9 22 -11 29 -4 12 12 66 14
66 2 0 -4 -5 -13 -11 -19 -18 -18 9 -78 45 -98 17 -10 35 -24 39 -32 6 -10 25
-12 72 -9 48 4 68 1 79 -10 18 -17 30 -18 20 -1 -4 6 -3 8 2 4 13 -13 13 -77
-1 -77 -7 0 -18 -7 -25 -15 -7 -8 -20 -15 -30 -15 -10 0 -21 -7 -24 -16 -5
-12 -2 -15 11 -10 12 5 15 4 8 -3 -5 -5 -26 -14 -45 -19 -19 -6 -27 -11 -17
-11 21 -1 23 -17 2 -25 -8 -3 -15 -15 -15 -26 0 -12 5 -18 10 -15 6 3 10 2 10
-4 0 -5 -5 -13 -10 -16 -7 -4 -7 -13 0 -25 6 -11 8 -33 5 -50 -3 -18 -1 -30 5
-30 6 0 9 -4 6 -9 -3 -4 -1 -22 3 -39 10 -34 -5 -105 -32 -156 l-16 -30 -10
27 c-9 23 -15 27 -38 23 -29 -5 -73 21 -73 43 0 7 -7 14 -15 17 -23 9 -18 43
11 77 36 43 30 109 -14 163 -31 38 -41 64 -24 64 15 0 20 103 9 165 -11 63
-48 165 -58 165 -6 0 -8 4 -4 9 3 5 1 12 -5 16 -16 10 -11 40 11 64 28 29 34
21 18 -24z m-1284 25 c3 -5 1 -10 -4 -10 -6 0 -11 5 -11 10 0 6 2 10 4 10 3 0
8 -4 11 -10z m1451 -990 c10 0 12 -5 7 -12 -4 -7 -6 -21 -5 -30 2 -10 -2 -18
-7 -18 -6 0 -11 4 -11 9 0 5 -9 7 -20 4 -11 -3 -20 0 -20 6 0 19 34 65 38 52
2 -6 10 -11 18 -11z m1554 -10 c0 -5 -5 -10 -11 -10 -5 0 -7 5 -4 10 3 6 8 10
11 10 2 0 4 -4 4 -10z m-30 -24 c0 -3 -4 -8 -10 -11 -5 -3 -10 -1 -10 4 0 6 5
11 10 11 6 0 10 -2 10 -4z m-256 -587 c-3 -5 -10 -7 -15 -3 -5 3 -7 10 -3 15
3 5 10 7 15 3 5 -3 7 -10 3 -15z m-1664 -360 c0 -6 5 -7 12 -3 7 4 8 3 4 -4
-11 -17 -19 -14 -40 14 -18 26 -18 26 3 15 11 -7 21 -16 21 -22z"/>
<path d="M2600 4760 c-9 -6 -10 -10 -3 -10 6 0 15 5 18 10 8 12 4 12 -15 0z"/>
<path d="M5115 4151 c-3 -5 -1 -12 5 -16 5 -3 10 1 10 9 0 18 -6 21 -15 7z"/>
<path d="M5091 4104 c0 -11 3 -14 6 -6 3 7 2 16 -1 19 -3 4 -6 -2 -5 -13z"/>
<path d="M1327 5216 c-4 -9 2 -17 14 -21 27 -9 35 1 16 20 -19 19 -23 19 -30
1z"/>
<path d="M1172 5194 c2 -24 7 -28 28 -26 20 3 23 1 13 -9 -19 -19 -16 -26 11
-31 22 -4 24 -1 23 29 -1 29 -4 33 -29 33 -16 0 -27 5 -25 11 1 6 -4 14 -11
16 -10 4 -13 -3 -10 -23z"/>
<path d="M1071 5124 c0 -11 3 -14 6 -6 3 7 2 16 -1 19 -3 4 -6 -2 -5 -13z"/>
<path d="M1306 5101 c-9 -14 22 -34 41 -26 17 6 17 7 -1 21 -23 16 -33 18 -40
5z"/>
<path d="M1055 5089 c-11 -17 1 -21 15 -4 8 9 8 15 2 15 -6 0 -14 -5 -17 -11z"/>
<path d="M1554 5069 c-3 -6 -1 -16 5 -22 8 -8 11 -5 11 11 0 24 -5 28 -16 11z"/>
<path d="M1630 5040 c0 -5 5 -10 10 -10 6 0 10 5 10 10 0 6 -4 10 -10 10 -5 0
-10 -4 -10 -10z"/>
<path d="M1580 5020 c0 -5 5 -10 10 -10 6 0 10 5 10 10 0 6 -4 10 -10 10 -5 0
-10 -4 -10 -10z"/>
<path d="M1190 4995 c0 -8 5 -15 10 -15 6 0 10 7 10 15 0 8 -4 15 -10 15 -5 0
-10 -7 -10 -15z"/>
<path d="M1545 4940 c-3 -5 1 -10 9 -10 9 0 16 5 16 10 0 6 -4 10 -9 10 -6 0
-13 -4 -16 -10z"/>
<path d="M1955 4938 c-30 -17 -45 -35 -45 -52 0 -8 -5 -18 -10 -21 -15 -9 -3
-24 18 -20 10 1 16 10 15 21 -1 10 3 27 8 37 8 14 13 16 25 6 9 -7 14 -8 14
-1 0 6 3 17 6 26 7 19 -3 20 -31 4z"/>
<path d="M2001 4920 c0 -8 4 -22 9 -30 12 -18 12 -2 0 25 -6 13 -9 15 -9 5z"/>
<path d="M2090 4860 c0 -5 5 -10 11 -10 5 0 7 5 4 10 -3 6 -8 10 -11 10 -2 0
-4 -4 -4 -10z"/>
<path d="M2143 4839 c-11 -11 -5 -59 8 -59 5 0 9 16 9 35 0 38 -1 40 -17 24z"/>
<path d="M2180 4829 c0 -5 5 -7 10 -4 6 3 10 8 10 11 0 2 -4 4 -10 4 -5 0 -10
-5 -10 -11z"/>
<path d="M2225 4810 c3 -5 10 -10 16 -10 5 0 9 5 9 10 0 6 -7 10 -16 10 -8 0
-12 -4 -9 -10z"/>
<path d="M1425 4791 c-3 -5 -1 -12 5 -16 5 -3 10 1 10 9 0 18 -6 21 -15 7z"/>
<path d="M2180 4785 c0 -8 5 -15 10 -15 6 0 10 7 10 15 0 8 -4 15 -10 15 -5 0
-10 -7 -10 -15z"/>
<path d="M1877 4764 c-4 -4 -7 -14 -7 -23 0 -11 3 -12 11 -4 6 6 10 16 7 23
-2 6 -7 8 -11 4z"/>
<path d="M1941 4724 c0 -11 3 -14 6 -6 3 7 2 16 -1 19 -3 4 -6 -2 -5 -13z"/>
<path d="M1900 4650 c0 -5 5 -10 11 -10 5 0 7 5 4 10 -3 6 -8 10 -11 10 -2 0
-4 -4 -4 -10z"/>
<path d="M2400 4629 c0 -5 5 -7 10 -4 6 3 10 8 10 11 0 2 -4 4 -10 4 -5 0 -10
-5 -10 -11z"/>
<path d="M5343 4043 c22 -6 22 -19 0 -32 -10 -5 -14 -13 -10 -17 5 -5 12 -2
16 5 6 9 11 10 15 2 10 -15 56 -10 56 7 0 7 -4 10 -10 7 -5 -3 -7 0 -4 8 3 10
-5 16 -27 21 -35 7 -64 6 -36 -1z"/>
<path d="M5345 3971 c-9 -16 9 -20 23 -5 10 12 10 14 -2 14 -8 0 -17 -4 -21
-9z"/>
<path d="M5344 3927 c-8 -21 2 -35 16 -21 5 5 6 15 0 24 -8 12 -10 12 -16 -3z"/>
<path d="M5406 3855 c-3 -8 -1 -15 4 -15 6 0 10 7 10 15 0 8 -2 15 -4 15 -2 0
-6 -7 -10 -15z"/>
<path d="M5386 3715 c-3 -8 -1 -15 4 -15 13 0 22 18 11 24 -5 3 -11 -1 -15 -9z"/>
<path d="M5335 3650 c3 -5 8 -10 11 -10 2 0 4 5 4 10 0 6 -5 10 -11 10 -5 0
-7 -4 -4 -10z"/>
<path d="M5270 3620 c0 -5 5 -10 10 -10 6 0 10 5 10 10 0 6 -4 10 -10 10 -5 0
-10 -4 -10 -10z"/>
<path d="M2816 3527 c3 -10 9 -15 12 -12 3 3 0 11 -7 18 -10 9 -11 8 -5 -6z"/>
<path d="M2590 3432 c0 -10 7 -19 14 -19 11 0 13 5 5 19 -5 10 -12 18 -14 18
-3 0 -5 -8 -5 -18z"/>
<path d="M2310 2983 c-25 -3 -49 -8 -54 -14 -14 -13 -86 -11 -86 2 0 8 -22 9
-72 4 -67 -6 -76 -9 -105 -42 -18 -20 -33 -41 -33 -47 0 -6 22 -24 49 -39 39
-21 70 -29 141 -36 50 -5 93 -11 97 -14 3 -4 0 -14 -8 -23 -13 -16 -10 -17 41
-10 30 4 59 11 65 15 5 4 28 13 50 20 47 16 67 30 59 42 -3 5 6 13 20 19 14 5
26 17 26 25 0 24 -19 55 -33 55 -7 0 -34 11 -61 25 -27 14 -50 24 -50 23 -1
-1 -21 -3 -46 -5z"/>
<path d="M4847 2852 c-12 -2 -16 -9 -13 -19 3 -8 6 -17 6 -20 0 -2 7 3 16 11
19 20 15 33 -9 28z"/>
<path d="M2443 2274 c-18 -13 -20 -20 -12 -35 13 -25 51 -24 67 2 12 18 20 20
55 15 39 -7 41 -6 25 10 -23 24 -107 29 -135 8z"/>
<path d="M1771 2184 c0 -11 3 -14 6 -6 3 7 2 16 -1 19 -3 4 -6 -2 -5 -13z"/>
<path d="M1781 2144 c0 -11 3 -14 6 -6 3 7 2 16 -1 19 -3 4 -6 -2 -5 -13z"/>
<path d="M1800 2051 c0 -25 6 -27 13 -6 4 8 2 17 -3 20 -6 4 -10 -3 -10 -14z"/>
</g>
</svg>
