<svg xmlns:xlink="http://www.w3.org/1999/xlink" width="24" height="25" viewBox="0 0 24 25" fill="none" xmlns="http://www.w3.org/2000/svg">
	<path d="M11.8163 12.9125C10.9947 12.6843 10.0025 12.623 8.93411 12.623C6.09905 12.623 3.80078 13.0547 3.80078 15.8897C3.80078 18.7248 6.09905 18.6897 8.93411 18.6897C9.53732 18.6897 10.1162 18.6913 10.6539 18.6665" stroke="#606A7B" stroke-width="1.5px" fill="none">
	</path>
	<path d="M20.6004 16.141C20.6004 19.1941 18.0932 19.1564 15.0004 19.1564C11.9076 19.1564 9.40039 19.1941 9.40039 16.141C9.40039 13.0879 11.9076 12.623 15.0004 12.623C18.0932 12.623 20.6004 13.0879 20.6004 16.141Z" stroke="#606A7B" stroke-width="1.5px" fill="none">
	</path>
	<path d="M11.5442 7.3912C10.948 6.60078 10.001 6.08984 8.93464 6.08984C7.13051 6.08984 5.66797 7.55238 5.66797 9.35651C5.66797 11.1606 7.13051 12.6232 8.93464 12.6232C10.1755 12.6232 11.2547 11.9314 11.8077 10.9124" stroke="#606A7B" stroke-width="1.5px" fill="none">
	</path>
	<circle cx="15.0009" cy="8.88958" r="3.73333" stroke="#606A7B" stroke-width="1.5px" fill="none">
	</circle>
</svg>
